<svg xmlns="http://www.w3.org/2000/svg" viewBox="-13.2546 -1004.3 1853 1837">
  <path d="M 1525 -662 C 1484 -525 1777 -604 1821 -502 C 1749 -331 1933 -372 1770.69 -78.7165 C 1623 -127 1709 132 1586 200 C 1749 289 1645.36 466.482 1562.45 538.586 C 1474.91 614.726 1323.09 512.169 1219.09 563.613 C 1110.01 617.576 1093 801.247 974.595 829.384 C 865.555 855.296 774.849 735.774 670.896 693.88 C 564.091 650.837 409.309 676.008 349.637 577.522 C 285.089 470.989 433.321 320.076 377.071 208.937 c -70.416 -139.1299 -337.071 -165.937 -364.071 -304.937 C -33.321 -208.094 -39 -491 172 -430 C 152 -614 288 -917 373 -754 C 564 -730 659 -1111 789 -951 C 925 -890 924 -1121 1204 -921 C 1085 -757 1399 -866 1528 -740 Z" fill="#007AFF"/>
</svg>