<svg width="1132" height="834" viewBox="0 0 1132 834" fill="none" xmlns="http://www.w3.org/2000/svg">
<path d="M1378.26 -561.531C1513.98 -510.487 1708.65 -589.437 1800.11 -476.914C1884.99 -372.491 1804.94 -208.847 1770.69 -78.7165C1742.09 29.9088 1653.27 110.792 1617.37 217.226C1582.25 321.336 1645.36 466.482 1562.45 538.586C1474.91 614.726 1323.09 512.169 1219.09 563.613C1110.01 617.576 1093 801.247 974.595 829.384C865.555 855.296 774.849 735.774 670.896 693.88C564.091 650.837 409.309 676.008 349.637 577.522C285.089 470.989 433.321 320.076 377.071 208.937C306.655 69.8071 73.174 64.3386 16.4019 -80.8944C-33.321 -208.094 43.1358 -355.969 109.612 -475.272C176.239 -594.848 286.725 -680.988 396.408 -762.884C506.44 -845.04 617.494 -962.692 754.692 -956.928C899.241 -950.856 998.435 -809.938 1120.62 -732.462C1208.62 -676.662 1280.73 -598.211 1378.26 -561.531Z" fill="#007AFF"/>
</svg>
