<svg width="1838" height="1792" viewBox="0 0 1838 1792" fill="none" xmlns="http://www.w3.org/2000/svg">
<path d="M1378.25 396.469C1513.98 447.513 1708.65 368.563 1800.11 481.086C1884.99 585.509 1804.94 749.153 1770.69 879.284C1742.09 987.909 1653.27 1068.79 1617.37 1175.23C1582.25 1279.34 1645.36 1424.48 1562.45 1496.59C1474.91 1572.73 1323.09 1470.17 1219.09 1521.61C1110.01 1575.58 1093 1759.25 974.595 1787.38C865.554 1813.3 774.849 1693.77 670.896 1651.88C564.091 1608.84 409.308 1634.01 349.636 1535.52C285.088 1428.99 433.32 1278.08 377.071 1166.94C306.655 1027.81 73.1733 1022.34 16.4013 877.106C-33.3217 749.906 43.1351 602.031 109.611 482.728C176.239 363.152 286.724 277.012 396.408 195.116C506.439 112.96 617.493 -4.69172 754.691 1.07158C899.24 7.14368 998.435 148.062 1120.62 225.538C1208.62 281.338 1280.72 359.789 1378.25 396.469Z" fill="#007AFF"/>
</svg>
